<svg xmlns="http://www.w3.org/2000/svg" viewBox="0 0 1802.88 411.59"><defs><style>.cls-1{fill:#143d73;}.cls-2{font-size:64.57px;fill:#3fa9f5;font-family:Raleway-Bold, Raleway;font-weight:700;}.cls-3{letter-spacing:-0.01em;}.cls-4{letter-spacing:-0.01em;}.cls-5{fill:#00a774;}.cls-6{fill:#b5bcc4;}</style></defs><g id="Capa_2" data-name="Capa 2"><g id="Capa_3" data-name="Capa 3"><rect class="cls-1" width="1802.88" height="411.59"/></g><g id="Capa_2-2" data-name="Capa 2"><text class="cls-2" transform="translate(97.91 242.97)">Nu<tspan class="cls-3" x="89.18" y="0">e</tspan><tspan class="cls-4" x="126.95" y="0">v</tspan><tspan x="161.57" y="0">a imagen</tspan></text><rect class="cls-5" x="101.24" y="263.88" width="320.03" height="9.72"/><path class="cls-6" d="M1594.42,117.13a24,24,0,1,1,24-24A24,24,0,0,1,1594.42,117.13Zm0-39a15.06,15.06,0,1,0,15.06,15.06A15.08,15.08,0,0,0,1594.42,78.09Z"/><path class="cls-6" d="M1504.05,165.13a24,24,0,1,1,24-24A24,24,0,0,1,1504.05,165.13Zm0-39a15.06,15.06,0,1,0,15.06,15.06A15.08,15.08,0,0,0,1504.05,126.08Z"/><path class="cls-6" d="M1504.05,262.23a24,24,0,1,1,24-24A24,24,0,0,1,1504.05,262.23Zm0-39.05a15.07,15.07,0,1,0,15.06,15.06A15.08,15.08,0,0,0,1504.05,223.18Z"/><path class="cls-6" d="M1594.42,316.46a24,24,0,1,1,24-24A24,24,0,0,1,1594.42,316.46Zm0-39a15.07,15.07,0,1,0,15.06,15.07A15.09,15.09,0,0,0,1594.42,277.41Z"/><path class="cls-6" d="M1684.32,262.23a24,24,0,1,1,24-24A24,24,0,0,1,1684.32,262.23Zm0-39.05a15.07,15.07,0,1,0,15.06,15.06A15.08,15.08,0,0,0,1684.32,223.18Z"/><path class="cls-6" d="M1684.25,165.13a24,24,0,1,1,24-24A24,24,0,0,1,1684.25,165.13Zm0-39a15.06,15.06,0,1,0,15.07,15.06A15.08,15.08,0,0,0,1684.25,126.08Z"/><path class="cls-6" d="M1639.49,178.41a11.27,11.27,0,0,0-11.24,10.42h-32.39l15.57-26.29a11.27,11.27,0,1,0-1.49-.88L1594.35,188l-15.6-26.33a11.38,11.38,0,1,0-1.49.88l15.57,26.29H1561a11.28,11.28,0,1,0,0,1.73h31.79l-15.57,26.29a11.1,11.1,0,0,0-5-1.17,11.3,11.3,0,1,0,6.47,2l15.6-26.34,15.59,26.34a11.28,11.28,0,1,0,6.47-2,11.1,11.1,0,0,0-5,1.17l-15.57-26.29h32.39a11.28,11.28,0,1,0,11.24-12.15Z"/></g></g></svg>