<svg xmlns="http://www.w3.org/2000/svg" viewBox="0 0 1802.88 411.59"><defs><style>.cls-1{fill:#143d73;}.cls-2{fill:#f2f2f2;}.cls-3{fill:#3fa9f5;}.cls-4{fill:#00a774;}.cls-5{fill:#b5bcc4;}</style></defs><g id="Capa_2" data-name="Capa 2"><g id="Capa_3" data-name="Capa 3"><rect class="cls-1" width="1802.88" height="411.59"/></g><g id="Capa_2-2" data-name="Capa 2"><path class="cls-2" d="M115.58,113.88v50.28H100.33V85.7h11.82L153,137.2V85.81h15.25v78.35H155.91Z"/><path class="cls-2" d="M200.88,165.26q-8.94,0-13.59-5.74t-4.64-17V106.26h14.81v33q0,13.37,9.61,13.37a15.2,15.2,0,0,0,8.34-2.6,18.67,18.67,0,0,0,6.58-7.9V106.26H236.8v40.88a5.18,5.18,0,0,0,.83,3.32,3.61,3.61,0,0,0,2.7,1.1v12.6a31.12,31.12,0,0,1-3.7.55c-1,.07-1.9.11-2.71.11a10.7,10.7,0,0,1-6.46-1.82,7.17,7.17,0,0,1-2.93-5l-.33-4.64a24.64,24.64,0,0,1-9.95,8.95A29.88,29.88,0,0,1,200.88,165.26Z"/><path class="cls-2" d="M278.35,165.26a32.23,32.23,0,0,1-12.6-2.37,28.5,28.5,0,0,1-15.75-16,30.61,30.61,0,0,1-2.15-11.38,32.25,32.25,0,0,1,2.1-11.66,28.36,28.36,0,0,1,6.08-9.61,29,29,0,0,1,9.66-6.58,32.23,32.23,0,0,1,12.77-2.43,31.4,31.4,0,0,1,12.65,2.43,29.11,29.11,0,0,1,9.5,6.52,27.67,27.67,0,0,1,6,9.51,31.68,31.68,0,0,1,2,11.27c0,1,0,1.88-.05,2.76a11.29,11.29,0,0,1-.28,2.21H263.54A17.08,17.08,0,0,0,265.2,146a14.84,14.84,0,0,0,8.17,7.4,15.7,15.7,0,0,0,5.53,1,17,17,0,0,0,8.34-2.16,11.4,11.4,0,0,0,5.36-5.69l12.71,3.54A25.79,25.79,0,0,1,295.09,161,31.65,31.65,0,0,1,278.35,165.26Zm15-34.91a15.4,15.4,0,0,0-4.8-10.45,15.09,15.09,0,0,0-20.5.06,15.1,15.1,0,0,0-3.26,4.53,15.78,15.78,0,0,0-1.49,5.86Z"/><path class="cls-2" d="M331.72,164.16l-21.33-57.9h15.25l14.7,45.85,14.81-45.85h13.92l-21.33,57.9Z"/><path class="cls-2" d="M391.17,165.26a22,22,0,0,1-7.84-1.38A18.79,18.79,0,0,1,377,160a18.14,18.14,0,0,1-4.15-5.81,17.63,17.63,0,0,1-1.49-7.29,16.15,16.15,0,0,1,1.82-7.57,17.34,17.34,0,0,1,5.09-5.91,25.16,25.16,0,0,1,7.79-3.81,34,34,0,0,1,9.94-1.38,43.05,43.05,0,0,1,7.57.66,30.83,30.83,0,0,1,6.58,1.88v-3.32q0-5.75-3.26-8.84t-9.67-3.09a25.44,25.44,0,0,0-9.06,1.66,41.51,41.51,0,0,0-9.06,4.86l-4.53-9.39a42.72,42.72,0,0,1,24.09-7.41q12.48,0,19.39,6.13T425,129.13v18a5.25,5.25,0,0,0,.82,3.32,3.65,3.65,0,0,0,2.71,1.1v12.6a33.34,33.34,0,0,1-6.52.77c-2.8,0-4.95-.62-6.46-1.88a8.05,8.05,0,0,1-2.82-5l-.33-3.2a25.6,25.6,0,0,1-9.4,7.73A26.91,26.91,0,0,1,391.17,165.26Zm4.2-10.82a19.42,19.42,0,0,0,7.13-1.33,12.94,12.94,0,0,0,5.25-3.54,5.31,5.31,0,0,0,2.43-4.2v-6.63a37.3,37.3,0,0,0-5.75-1.6,31.34,31.34,0,0,0-6-.61,15.82,15.82,0,0,0-9.39,2.6,7.79,7.79,0,0,0-3.64,6.58A7.9,7.9,0,0,0,388.3,152,10.4,10.4,0,0,0,395.37,154.44Z"/><path class="cls-2" d="M465.32,98.19V83.49h14.8v14.7Zm0,66v-57.9h14.8v57.9Z"/><path class="cls-2" d="M517.47,165.26a26.18,26.18,0,0,1-19.78-8.72A30,30,0,0,1,492,147a33.43,33.43,0,0,1-2-11.77,34.64,34.64,0,0,1,1.93-11.72,31,31,0,0,1,5.36-9.5,24.77,24.77,0,0,1,8.18-6.41,23.42,23.42,0,0,1,10.39-2.32,21.85,21.85,0,0,1,11.54,3.1,22.33,22.33,0,0,1,8,8.06V83.49h14.81v63.65a5.55,5.55,0,0,0,.77,3.32,3.45,3.45,0,0,0,2.66,1.1v12.6a34,34,0,0,1-6.3.77,10.24,10.24,0,0,1-6.52-2,7.25,7.25,0,0,1-2.87-5.19l-.34-3.65a20.92,20.92,0,0,1-8.67,8.35A24.64,24.64,0,0,1,517.47,165.26Zm3.87-12.59a13.86,13.86,0,0,0,4.31-.72,15.09,15.09,0,0,0,4.09-2,17.94,17.94,0,0,0,3.37-3.09,12.84,12.84,0,0,0,2.26-3.87V129.13a16.52,16.52,0,0,0-2.48-4.48,18.47,18.47,0,0,0-3.65-3.53,18.81,18.81,0,0,0-4.31-2.38,12.21,12.21,0,0,0-4.47-.88,13.31,13.31,0,0,0-6.14,1.44,14.33,14.33,0,0,0-4.8,3.92,18.85,18.85,0,0,0-3.1,5.69,20.4,20.4,0,0,0-1.1,6.63,18.27,18.27,0,0,0,1.21,6.74,17.47,17.47,0,0,0,3.32,5.41,14.94,14.94,0,0,0,5,3.65A15.36,15.36,0,0,0,521.34,152.67Z"/><path class="cls-2" d="M591.62,165.26a32.23,32.23,0,0,1-12.6-2.37,28.44,28.44,0,0,1-15.74-16,30.42,30.42,0,0,1-2.16-11.38,32.25,32.25,0,0,1,2.1-11.66,28.52,28.52,0,0,1,6.08-9.61,29,29,0,0,1,9.67-6.58,32.15,32.15,0,0,1,12.76-2.43,31.4,31.4,0,0,1,12.65,2.43,29.26,29.26,0,0,1,9.51,6.52,27.79,27.79,0,0,1,6,9.51,31.69,31.69,0,0,1,2,11.27q0,1.44-.06,2.76a12.21,12.21,0,0,1-.27,2.21H576.81a17.08,17.08,0,0,0,1.66,6.08,14.81,14.81,0,0,0,8.18,7.4,15.6,15.6,0,0,0,5.52,1,17,17,0,0,0,8.34-2.16,11.36,11.36,0,0,0,5.36-5.69l12.71,3.54A25.79,25.79,0,0,1,608.36,161,31.65,31.65,0,0,1,591.62,165.26Zm15-34.91a15.41,15.41,0,0,0-4.81-10.45,15.09,15.09,0,0,0-20.5.06,15.28,15.28,0,0,0-3.26,4.53,16,16,0,0,0-1.49,5.86Z"/><path class="cls-2" d="M684.77,164.16H670V131.67q0-7-2.43-10.16a8,8,0,0,0-6.74-3.21,12.7,12.7,0,0,0-4.53.89,16.66,16.66,0,0,0-4.36,2.48,20,20,0,0,0-3.7,3.81,15.17,15.17,0,0,0-2.44,4.87v33.81H631v-57.9h13.37V117a21.84,21.84,0,0,1,9.28-8.62,29.67,29.67,0,0,1,13.7-3.1,17.4,17.4,0,0,1,8.84,2,14.46,14.46,0,0,1,5.31,5.19,21.82,21.82,0,0,1,2.59,7.3,47.67,47.67,0,0,1,.72,8.29Z"/><path class="cls-2" d="M731.85,161.18a67.92,67.92,0,0,1-7.3,2.65,30.73,30.73,0,0,1-9.06,1.32,20.85,20.85,0,0,1-5.8-.77,12.5,12.5,0,0,1-4.75-2.49,12,12,0,0,1-3.26-4.42,16,16,0,0,1-1.22-6.57V117.64h-7.62V106.26h7.62V87.47h14.81v18.79h12.16v11.38H715.27v28.29c0,2.06.53,3.52,1.6,4.36a6.12,6.12,0,0,0,3.93,1.27,13.56,13.56,0,0,0,4.53-.77c1.47-.52,2.65-1,3.53-1.33Z"/><path class="cls-2" d="M739.58,98.19V83.49h14.81v14.7Zm0,66v-57.9h14.81v57.9Z"/><path class="cls-2" d="M791.74,165.26A26.18,26.18,0,0,1,772,156.54a30,30,0,0,1-5.69-9.56,33.21,33.21,0,0,1-2-11.77,34.64,34.64,0,0,1,1.93-11.72,31,31,0,0,1,5.36-9.5,24.87,24.87,0,0,1,8.18-6.41,23.45,23.45,0,0,1,10.39-2.32,21.91,21.91,0,0,1,11.55,3.1,22.49,22.49,0,0,1,8,8.06V83.49h14.81v63.65a5.48,5.48,0,0,0,.77,3.32,3.42,3.42,0,0,0,2.65,1.1v12.6a34,34,0,0,1-6.3.77,10.26,10.26,0,0,1-6.52-2,7.28,7.28,0,0,1-2.87-5.19l-.33-3.65a21,21,0,0,1-8.68,8.35A24.6,24.6,0,0,1,791.74,165.26Zm3.86-12.59a13.86,13.86,0,0,0,4.31-.72,15,15,0,0,0,4.09-2,17.63,17.63,0,0,0,3.37-3.09,12.87,12.87,0,0,0,2.27-3.87V129.13a16.29,16.29,0,0,0-2.49-4.48,18.2,18.2,0,0,0-3.65-3.53,19,19,0,0,0-4.3-2.38,12.3,12.3,0,0,0-4.48-.88,13.27,13.27,0,0,0-6.13,1.44,14.46,14.46,0,0,0-4.81,3.92,18.61,18.61,0,0,0-3.09,5.69,20.15,20.15,0,0,0-1.11,6.63,18.27,18.27,0,0,0,1.22,6.74,17.45,17.45,0,0,0,3.31,5.41,15,15,0,0,0,5,3.65A15.36,15.36,0,0,0,795.6,152.67Z"/><path class="cls-2" d="M854.83,165.26a22,22,0,0,1-7.84-1.38,19,19,0,0,1-6.3-3.86,18.14,18.14,0,0,1-4.15-5.81,17.63,17.63,0,0,1-1.49-7.29,16,16,0,0,1,1.83-7.57,17.21,17.21,0,0,1,5.08-5.91,25.16,25.16,0,0,1,7.79-3.81,34,34,0,0,1,9.94-1.38,43.05,43.05,0,0,1,7.57.66,30.83,30.83,0,0,1,6.58,1.88v-3.32q0-5.75-3.26-8.84t-9.67-3.09a25.48,25.48,0,0,0-9.06,1.66,41.51,41.51,0,0,0-9.06,4.86l-4.53-9.39a42.72,42.72,0,0,1,24.09-7.41q12.48,0,19.39,6.13t6.91,17.74v18a5.18,5.18,0,0,0,.83,3.32,3.61,3.61,0,0,0,2.7,1.1v12.6a33.34,33.34,0,0,1-6.52.77c-2.8,0-4.95-.62-6.46-1.88a8.05,8.05,0,0,1-2.82-5l-.33-3.2a25.65,25.65,0,0,1-9.39,7.73A27,27,0,0,1,854.83,165.26Zm4.2-10.82a19.42,19.42,0,0,0,7.13-1.33,12.94,12.94,0,0,0,5.25-3.54,5.31,5.31,0,0,0,2.43-4.2v-6.63a37.3,37.3,0,0,0-5.75-1.6,31.32,31.32,0,0,0-6-.61,15.83,15.83,0,0,0-9.4,2.6,7.79,7.79,0,0,0-3.64,6.58A7.9,7.9,0,0,0,852,152,10.4,10.4,0,0,0,859,154.44Z"/><path class="cls-2" d="M926.44,165.26a26.18,26.18,0,0,1-19.78-8.72A30,30,0,0,1,901,147a33.21,33.21,0,0,1-2.05-11.77,34.64,34.64,0,0,1,1.94-11.72,30.75,30.75,0,0,1,5.35-9.5,24.87,24.87,0,0,1,8.18-6.41,23.45,23.45,0,0,1,10.39-2.32,21.91,21.91,0,0,1,11.55,3.1,22.49,22.49,0,0,1,8,8.06V83.49h14.81v63.65a5.48,5.48,0,0,0,.77,3.32,3.42,3.42,0,0,0,2.65,1.1v12.6a34,34,0,0,1-6.3.77,10.26,10.26,0,0,1-6.52-2,7.28,7.28,0,0,1-2.87-5.19l-.33-3.65a21,21,0,0,1-8.68,8.35A24.6,24.6,0,0,1,926.44,165.26Zm3.86-12.59a13.86,13.86,0,0,0,4.31-.72,15,15,0,0,0,4.09-2,17.63,17.63,0,0,0,3.37-3.09,12.87,12.87,0,0,0,2.27-3.87V129.13a16.29,16.29,0,0,0-2.49-4.48,18.2,18.2,0,0,0-3.65-3.53,19,19,0,0,0-4.3-2.38,12.3,12.3,0,0,0-4.48-.88,13.27,13.27,0,0,0-6.13,1.44,14.46,14.46,0,0,0-4.81,3.92,18.61,18.61,0,0,0-3.09,5.69,20.15,20.15,0,0,0-1.11,6.63,18.27,18.27,0,0,0,1.22,6.74,17.45,17.45,0,0,0,3.31,5.41,15,15,0,0,0,5,3.65A15.4,15.4,0,0,0,930.3,152.67Z"/><path class="cls-3" d="M111.6,213.59V243h-8.91V197.12h6.91l23.89,30.09v-30h8.91V243h-7.23Z"/><path class="cls-3" d="M161.45,243.62c-3.49,0-6.13-1.12-7.94-3.36s-2.71-5.55-2.71-9.95V209.13h8.65v19.31q0,7.81,5.62,7.82a8.88,8.88,0,0,0,4.87-1.52,10.89,10.89,0,0,0,3.84-4.62v-21h8.66V233a3,3,0,0,0,.48,1.93,2.1,2.1,0,0,0,1.58.65V243a18,18,0,0,1-2.16.32c-.58.05-1.11.07-1.58.07a6.25,6.25,0,0,1-3.78-1.07,4.18,4.18,0,0,1-1.71-2.93l-.19-2.72a14.39,14.39,0,0,1-5.82,5.23A17.36,17.36,0,0,1,161.45,243.62Z"/><path class="cls-3" d="M206.72,243.62a18.86,18.86,0,0,1-7.36-1.39,17,17,0,0,1-5.62-3.78,16.74,16.74,0,0,1-3.59-5.55,17.83,17.83,0,0,1-1.26-6.65,18.84,18.84,0,0,1,1.23-6.82,16.58,16.58,0,0,1,3.55-5.61,17,17,0,0,1,5.65-3.85,19,19,0,0,1,7.46-1.42,18.5,18.5,0,0,1,7.4,1.42,17.14,17.14,0,0,1,5.55,3.81,16.32,16.32,0,0,1,3.49,5.56,18.61,18.61,0,0,1,1.19,6.58q0,.84,0,1.62a7,7,0,0,1-.16,1.29H198.06a10.2,10.2,0,0,0,1,3.55,9,9,0,0,0,2,2.65,8.88,8.88,0,0,0,2.78,1.68,9.28,9.28,0,0,0,3.23.58,10,10,0,0,0,4.88-1.26,6.7,6.7,0,0,0,3.13-3.33l7.42,2.07a15.15,15.15,0,0,1-6,6.36A18.47,18.47,0,0,1,206.72,243.62Zm8.78-20.41a9,9,0,0,0-2.81-6.1,8.82,8.82,0,0,0-12,0,8.88,8.88,0,0,0-1.9,2.65,9.08,9.08,0,0,0-.87,3.42Z"/><path class="cls-3" d="M237.91,243l-12.47-33.84h8.92l8.58,26.8,8.66-26.8h8.13L247.27,243Z"/><path class="cls-3" d="M272.65,243.62a12.75,12.75,0,0,1-4.58-.81,11,11,0,0,1-3.69-2.26,10.58,10.58,0,0,1-2.42-3.39,10.27,10.27,0,0,1-.87-4.26,9.44,9.44,0,0,1,1.07-4.43,10.21,10.21,0,0,1,3-3.45,14.64,14.64,0,0,1,4.55-2.23,19.76,19.76,0,0,1,5.81-.81,24.8,24.8,0,0,1,4.42.39,18.28,18.28,0,0,1,3.85,1.1v-1.94a6.76,6.76,0,0,0-1.91-5.16q-1.91-1.81-5.65-1.81a14.83,14.83,0,0,0-5.29,1,24.16,24.16,0,0,0-5.3,2.84L263,212.88A25,25,0,0,1,277,208.55q7.29,0,11.33,3.59t4,10.36V233a3,3,0,0,0,.48,1.93,2.12,2.12,0,0,0,1.59.65V243a19.45,19.45,0,0,1-3.81.45,5.77,5.77,0,0,1-3.78-1.09,4.78,4.78,0,0,1-1.65-2.91l-.19-1.87a15.1,15.1,0,0,1-5.49,4.52A15.81,15.81,0,0,1,272.65,243.62Zm2.45-6.33a11.24,11.24,0,0,0,4.17-.78,7.58,7.58,0,0,0,3.07-2.06,3.13,3.13,0,0,0,1.42-2.46v-3.87a21.66,21.66,0,0,0-3.36-.94,18.68,18.68,0,0,0-3.49-.35,9.25,9.25,0,0,0-5.49,1.51,4.58,4.58,0,0,0-2.13,3.85,4.63,4.63,0,0,0,1.68,3.65A6.14,6.14,0,0,0,275.1,237.29Z"/><path class="cls-3" d="M316,204.42v-8.59h8.65v8.59ZM316,243V209.13h8.65V243Z"/><path class="cls-3" d="M385,243h-8.66V224q0-4.08-1.38-5.94a4.53,4.53,0,0,0-3.85-1.88,7.27,7.27,0,0,0-4.84,2,10.9,10.9,0,0,0-3.23,5.14V243H354.4V224q0-4.08-1.39-5.94a4.53,4.53,0,0,0-3.84-1.88,7.38,7.38,0,0,0-4.81,1.94,10.47,10.47,0,0,0-3.26,5.1V243h-8.66V209.13h7.82v6.27a12.89,12.89,0,0,1,5.13-5.07,15.38,15.38,0,0,1,7.46-1.78,9.59,9.59,0,0,1,6.59,2.07,9.24,9.24,0,0,1,3,5.1,14.62,14.62,0,0,1,5.23-5.33,14.19,14.19,0,0,1,7.23-1.84,10,10,0,0,1,5.1,1.17,8.35,8.35,0,0,1,3.1,3,12.76,12.76,0,0,1,1.52,4.26,28,28,0,0,1,.42,4.85Z"/><path class="cls-3" d="M401.8,243.62a12.81,12.81,0,0,1-4.59-.81,11.1,11.1,0,0,1-3.68-2.26,10.58,10.58,0,0,1-2.42-3.39,10.27,10.27,0,0,1-.87-4.26,9.43,9.43,0,0,1,1.06-4.43,10.24,10.24,0,0,1,3-3.45,14.53,14.53,0,0,1,4.55-2.23,19.76,19.76,0,0,1,5.81-.81,24.8,24.8,0,0,1,4.42.39,18.35,18.35,0,0,1,3.84,1.1v-1.94a6.76,6.76,0,0,0-1.9-5.16q-1.9-1.81-5.65-1.81a14.92,14.92,0,0,0-5.3,1,24.32,24.32,0,0,0-5.29,2.84l-2.65-5.49a25,25,0,0,1,14.08-4.33q7.29,0,11.33,3.59t4,10.36V233A3,3,0,0,0,422,235a2.1,2.1,0,0,0,1.58.65V243a19.29,19.29,0,0,1-3.81.45,5.76,5.76,0,0,1-3.77-1.09,4.73,4.73,0,0,1-1.65-2.91l-.19-1.87a15.1,15.1,0,0,1-5.49,4.52A15.84,15.84,0,0,1,401.8,243.62Zm2.45-6.33a11.27,11.27,0,0,0,4.17-.78,7.48,7.48,0,0,0,3.06-2.06A3.1,3.1,0,0,0,412.9,232v-3.87a21.22,21.22,0,0,0-3.35-.94,18.68,18.68,0,0,0-3.49-.35,9.25,9.25,0,0,0-5.49,1.51,4.58,4.58,0,0,0-2.13,3.85,4.63,4.63,0,0,0,1.68,3.65A6.12,6.12,0,0,0,404.25,237.29Z"/><path class="cls-3" d="M442.87,243.17a14,14,0,0,1-6.2-1.36,15,15,0,0,1-4.81-3.71,17,17,0,0,1-3.14-5.46,20.61,20.61,0,0,1,.07-13.43,17.73,17.73,0,0,1,3.23-5.56,14.69,14.69,0,0,1,5-3.74,15,15,0,0,1,6.39-1.36,13.24,13.24,0,0,1,6.91,1.78,15,15,0,0,1,4.91,4.74v-5.94h7.56v32.23a15.33,15.33,0,0,1-1.43,6.71,14.75,14.75,0,0,1-3.9,5,17.41,17.41,0,0,1-5.94,3.16,24.52,24.52,0,0,1-7.53,1.1,21.17,21.17,0,0,1-9.33-1.84,18.94,18.94,0,0,1-6.49-5.2l4.72-4.58a13.33,13.33,0,0,0,4.87,3.74,14.62,14.62,0,0,0,6.23,1.36,13.27,13.27,0,0,0,3.85-.55,9.51,9.51,0,0,0,3.26-1.71,8,8,0,0,0,2.22-3,10.38,10.38,0,0,0,.81-4.26v-4.27a11.39,11.39,0,0,1-4.71,4.49A13.87,13.87,0,0,1,442.87,243.17Zm2.9-6.91a7.91,7.91,0,0,0,2.71-.46,9.8,9.8,0,0,0,2.39-1.22,9.54,9.54,0,0,0,1.94-1.81,8.08,8.08,0,0,0,1.29-2.2V222.5a10.48,10.48,0,0,0-3.65-4.78,8.73,8.73,0,0,0-5.19-1.81,7.49,7.49,0,0,0-3.62.88,9,9,0,0,0-2.78,2.32,10.43,10.43,0,0,0-1.77,3.33,12.34,12.34,0,0,0-.62,3.87,10.61,10.61,0,0,0,.71,3.88,10,10,0,0,0,2,3.16,9.4,9.4,0,0,0,2.94,2.13A8.64,8.64,0,0,0,445.77,236.26Z"/><path class="cls-3" d="M486.26,243.62a18.86,18.86,0,0,1-7.36-1.39,17,17,0,0,1-5.62-3.78,16.71,16.71,0,0,1-3.58-5.55,17.83,17.83,0,0,1-1.26-6.65,19.05,19.05,0,0,1,1.22-6.82,16.61,16.61,0,0,1,3.56-5.61,16.91,16.91,0,0,1,5.65-3.85,18.88,18.88,0,0,1,7.45-1.42,18.5,18.5,0,0,1,7.4,1.42,17.14,17.14,0,0,1,5.55,3.81,16.32,16.32,0,0,1,3.49,5.56,18.38,18.38,0,0,1,1.19,6.58q0,.84,0,1.62a6.2,6.2,0,0,1-.16,1.29H477.61a10,10,0,0,0,1,3.55,8.66,8.66,0,0,0,2,2.65,8.83,8.83,0,0,0,2.77,1.68,9.32,9.32,0,0,0,3.23.58,10,10,0,0,0,4.88-1.26,6.66,6.66,0,0,0,3.13-3.33l7.43,2.07a15.12,15.12,0,0,1-6,6.36A18.47,18.47,0,0,1,486.26,243.62ZM495,223.21a9,9,0,0,0-2.81-6.1,8.56,8.56,0,0,0-6-2.29,8.53,8.53,0,0,0-5.95,2.32,8.88,8.88,0,0,0-1.9,2.65,9.08,9.08,0,0,0-.87,3.42Z"/><path class="cls-3" d="M540.7,243H532V224q0-4.08-1.42-5.94a4.66,4.66,0,0,0-3.94-1.88,7.46,7.46,0,0,0-2.64.52,9.53,9.53,0,0,0-2.55,1.45,12.09,12.09,0,0,0-2.17,2.23,8.91,8.91,0,0,0-1.42,2.84V243h-8.65V209.13h7.81v6.27a12.88,12.88,0,0,1,5.43-5,17.41,17.41,0,0,1,8-1.81,10.17,10.17,0,0,1,5.17,1.17,8.35,8.35,0,0,1,3.1,3,12.76,12.76,0,0,1,1.52,4.26,28,28,0,0,1,.42,4.85Z"/><rect class="cls-4" x="101.24" y="263.88" width="320.03" height="9.72"/><path class="cls-5" d="M1594.42,117.13a24,24,0,1,1,24-24A24,24,0,0,1,1594.42,117.13Zm0-39a15.06,15.06,0,1,0,15.06,15.06A15.08,15.08,0,0,0,1594.42,78.09Z"/><path class="cls-5" d="M1504.05,165.13a24,24,0,1,1,24-24A24,24,0,0,1,1504.05,165.13Zm0-39a15.06,15.06,0,1,0,15.06,15.06A15.08,15.08,0,0,0,1504.05,126.08Z"/><path class="cls-5" d="M1504.05,262.23a24,24,0,1,1,24-24A24,24,0,0,1,1504.05,262.23Zm0-39.05a15.07,15.07,0,1,0,15.06,15.06A15.08,15.08,0,0,0,1504.05,223.18Z"/><path class="cls-5" d="M1594.42,316.46a24,24,0,1,1,24-24A24,24,0,0,1,1594.42,316.46Zm0-39a15.07,15.07,0,1,0,15.06,15.07A15.09,15.09,0,0,0,1594.42,277.41Z"/><path class="cls-5" d="M1684.32,262.23a24,24,0,1,1,24-24A24,24,0,0,1,1684.32,262.23Zm0-39.05a15.07,15.07,0,1,0,15.06,15.06A15.08,15.08,0,0,0,1684.32,223.18Z"/><path class="cls-5" d="M1684.25,165.13a24,24,0,1,1,24-24A24,24,0,0,1,1684.25,165.13Zm0-39a15.06,15.06,0,1,0,15.07,15.06A15.08,15.08,0,0,0,1684.25,126.08Z"/><path class="cls-5" d="M1639.49,178.41a11.27,11.27,0,0,0-11.24,10.42h-32.39l15.57-26.29a11.27,11.27,0,1,0-1.49-.88L1594.35,188l-15.6-26.33a11.38,11.38,0,1,0-1.49.88l15.57,26.29H1561a11.28,11.28,0,1,0,0,1.73h31.79l-15.57,26.29a11.1,11.1,0,0,0-5-1.17,11.3,11.3,0,1,0,6.47,2l15.6-26.34,15.59,26.34a11.28,11.28,0,1,0,6.47-2,11.1,11.1,0,0,0-5,1.17l-15.57-26.29h32.39a11.28,11.28,0,1,0,11.24-12.15Z"/></g></g></svg>