<svg xmlns="http://www.w3.org/2000/svg" viewBox="0 0 350.4 124.32"><defs><style>.cls-1{fill:#143d73;}.cls-2{fill:none;}</style></defs><g id="Capa_2" data-name="Capa 2"><g id="Logo"><path class="cls-1" d="M82.24,40.26a6.94,6.94,0,1,1,6.94-6.94A6.94,6.94,0,0,1,82.24,40.26Zm0-11.29a4.36,4.36,0,1,0,4.36,4.35A4.36,4.36,0,0,0,82.24,29Z"/><path class="cls-1" d="M56.22,54.37a6.94,6.94,0,1,1,6.94-6.94A6.94,6.94,0,0,1,56.22,54.37Zm0-11.3a4.36,4.36,0,1,0,4.36,4.36A4.37,4.37,0,0,0,56.22,43.07Z"/><path class="cls-1" d="M56.22,82.48a6.94,6.94,0,1,1,6.94-6.94A7,7,0,0,1,56.22,82.48Zm0-11.3a4.36,4.36,0,1,0,4.36,4.36A4.36,4.36,0,0,0,56.22,71.18Z"/><path class="cls-1" d="M82.24,97.94A6.94,6.94,0,1,1,89.18,91,7,7,0,0,1,82.24,97.94Zm0-11.3A4.36,4.36,0,1,0,86.6,91,4.36,4.36,0,0,0,82.24,86.64Z"/><path class="cls-1" d="M108.26,82.48a6.94,6.94,0,1,1,6.94-6.94A7,7,0,0,1,108.26,82.48Zm0-11.3a4.36,4.36,0,1,0,4.36,4.36A4.36,4.36,0,0,0,108.26,71.18Z"/><path class="cls-1" d="M108.26,54.37a6.94,6.94,0,1,1,6.94-6.94A6.94,6.94,0,0,1,108.26,54.37Zm0-11.3a4.36,4.36,0,1,0,4.36,4.36A4.36,4.36,0,0,0,108.26,43.07Z"/><path class="cls-1" d="M95.55,58a3.4,3.4,0,0,0-3.38,3.14H82.8l4.71-7.81a3.46,3.46,0,0,0,1.63.42A3.43,3.43,0,1,0,87.06,53L82.41,60.7l-4.72-7.61a3.41,3.41,0,1,0-2,.61,3.49,3.49,0,0,0,1.48-.34L82,61.09H72.3a3.41,3.41,0,1,0,0,.54h9.55L76.3,70.85a3.29,3.29,0,1,0,.46.27l5.66-9.39,5.65,9.08a3.39,3.39,0,1,0,1.48-.35,3.45,3.45,0,0,0-1,.15l-5.58-9h9.17A3.4,3.4,0,1,0,95.55,58Z"/><path class="cls-1" d="M149.63,70.78H132.16a7,7,0,0,1-4.55-1.54,5.07,5.07,0,0,1-2.06-4.1V45.79c0-.89.47-1.34,1.4-1.34s1.41.45,1.41,1.34V65.14a2.61,2.61,0,0,0,1.24,2.2,4.49,4.49,0,0,0,2.56.77h17.47c.94,0,1.41.44,1.41,1.33S150.57,70.78,149.63,70.78Z"/><path class="cls-1" d="M174,70.78H155.34c-.93,0-1.4-.44-1.4-1.34V45.79c0-.89.47-1.34,1.4-1.34h17.45c.93,0,1.4.45,1.4,1.34s-.47,1.34-1.4,1.34h-16v6h16c.93,0,1.4.44,1.4,1.33s-.47,1.32-1.4,1.32h-16V68.11H174c.94,0,1.4.44,1.4,1.33S174.93,70.78,174,70.78Z"/><path class="cls-1" d="M202.47,70.78a1.52,1.52,0,0,1-1.13-.52L181.1,49.33V69.44c0,.9-.46,1.34-1.4,1.34s-1.41-.44-1.41-1.34V45.86c0-1,.44-1.43,1.32-1.43a1.55,1.55,0,0,1,1.13.54L201,65.91V45.77c0-.89.47-1.34,1.41-1.34s1.4.45,1.4,1.34V69.35C203.78,70.31,203.35,70.78,202.47,70.78Z"/><path class="cls-1" d="M226.94,70.78H209.49c-.93,0-1.4-.44-1.4-1.34V45.79c0-.89.47-1.34,1.4-1.34h17.45A7.22,7.22,0,0,1,231.52,46a5.09,5.09,0,0,1,2.06,4.11v15a5.07,5.07,0,0,1-2.13,4.15A7.24,7.24,0,0,1,226.94,70.78Zm3.83-20.68a2.58,2.58,0,0,0-1.25-2.2,4.41,4.41,0,0,0-2.58-.77h-16v21h16a4.48,4.48,0,0,0,2.58-.77,2.6,2.6,0,0,0,1.25-2.2Z"/><path class="cls-1" d="M256.73,70.78H244.5a7.08,7.08,0,0,1-4.56-1.54,5.07,5.07,0,0,1-2.06-4.1V45.77c0-.89.47-1.34,1.41-1.34s1.4.45,1.4,1.34V65.14a2.62,2.62,0,0,0,1.25,2.2,4.46,4.46,0,0,0,2.56.77h12.23a4.54,4.54,0,0,0,2.59-.77,2.59,2.59,0,0,0,1.24-2.2V45.77c0-.89.47-1.34,1.41-1.34s1.4.45,1.4,1.34V65.14a5.07,5.07,0,0,1-2.13,4.15A7.24,7.24,0,0,1,256.73,70.78Z"/><path class="cls-1" d="M286.53,70.78H269.08c-.93,0-1.4-.44-1.4-1.34s.47-1.33,1.4-1.33h17.45a4.51,4.51,0,0,0,2.58-.77,2.6,2.6,0,0,0,1.25-2.2V61.92a2.6,2.6,0,0,0-1.25-2.2,4.51,4.51,0,0,0-2.58-.77H274.29a7,7,0,0,1-4.55-1.56,5,5,0,0,1-2.06-4.1V50.1A5.06,5.06,0,0,1,269.74,46a7.09,7.09,0,0,1,4.55-1.54h12.24c.93,0,1.4.45,1.4,1.34s-.47,1.34-1.4,1.34H274.29a4.41,4.41,0,0,0-2.56.77,2.61,2.61,0,0,0-1.24,2.2v3.19a2.61,2.61,0,0,0,1.24,2.2,4.36,4.36,0,0,0,2.56.79h12.24a7.16,7.16,0,0,1,4.58,1.54,5.07,5.07,0,0,1,2.06,4.1v3.22A5.07,5.07,0,0,1,291,69.29,7.24,7.24,0,0,1,286.53,70.78Z"/><path class="cls-1" d="M299.29,38.56a3.59,3.59,0,0,1,1.34,1.34,3.89,3.89,0,0,1,0,3.8,3.55,3.55,0,0,1-1.36,1.36,3.74,3.74,0,0,1-5.13-1.35,3.76,3.76,0,0,1-.5-1.89,3.74,3.74,0,0,1,1.85-3.25,3.75,3.75,0,0,1,1.91-.49A3.8,3.8,0,0,1,299.29,38.56Zm-.33,6a3.07,3.07,0,0,0,1.13-1.16,3.13,3.13,0,0,0,.42-1.6,3.2,3.2,0,0,0-.41-1.6A3,3,0,0,0,299,39.07a3.17,3.17,0,0,0-1.6-.41,3.12,3.12,0,0,0-1.61.42,3,3,0,0,0-1.13,1.14,3.33,3.33,0,0,0,0,3.2,3,3,0,0,0,1.12,1.14,3.11,3.11,0,0,0,1.6.42A3.07,3.07,0,0,0,299,44.56Zm.13-2.58a1.35,1.35,0,0,1-.62.5l.93,1.43h-.91l-.83-1.27h-.94v1.27h-.91V39.73h1.74a2,2,0,0,1,1.29.39,1.32,1.32,0,0,1,.47,1.06A1.47,1.47,0,0,1,299.09,42Zm-1.6,0a1.07,1.07,0,0,0,.69-.2.64.64,0,0,0,.25-.55.64.64,0,0,0-.25-.54,1.07,1.07,0,0,0-.69-.19h-.78v1.48Z"/><rect class="cls-2" width="350.4" height="124.32"/></g></g></svg>